# xmcd CD database file
#
# Track frame offsets:
#	150
#	12662
#	28410
#	35994
#	54515
#	64178
#	74927
#	85216
#	95548
#	102420
#	117471
#	126148
#
# Disc length: 1755 seconds
#
# Revision: 0
# Processed by: cddbd v1.4PL0 Copyright (c) Steve Scherf et al.
# Submitted via: CDex 1.40Release
#
DISCID=bc06d90c
DTITLE=1/4" Jacks - The Unbelievable Hog
DYEAR=2001
DGENRE=Country
TTITLE0=Just Can't SettleDown
TTITLE1=Baby's Doin' Me Wrong
TTITLE2=Million Dollar Idea
TTITLE3=Soul On Fire
TTITLE4=I Got Stripes
TTITLE5=Nowhere Road
TTITLE6=Who Killed Road
TTITLE7=Wanted Man
TTITLE8=American Nightmare
TTITLE9=Fuck The Law
TTITLE10=Houston
TTITLE11=Sat Down With Chili
EXTD=YEAR: 2001 ID3G: 2
EXTT0=
EXTT1=
EXTT2=
EXTT3=
EXTT4=
EXTT5=
EXTT6=
EXTT7=
EXTT8=
EXTT9=
EXTT10=
EXTT11=
PLAYORDER=
